<?xml version="1.0" encoding="UTF-8"?><svg id="a" xmlns="http://www.w3.org/2000/svg" viewBox="0 0 2930.54 365"><rect x="2.5" y="2.5" width="480" height="360" rx="31.7" ry="31.7" fill="#a4f2ff" stroke="#047082" stroke-miterlimit="10" stroke-width="5"/><path d="m228.68,290.6c-12.48,4.48-37.12,11.84-66.24,11.84-32.64,0-59.52-8.32-80.64-28.48-18.56-17.92-30.08-46.72-30.08-80.32.32-64.32,44.48-111.36,116.8-111.36,24.96,0,44.48,5.44,53.76,9.92l-6.72,22.72c-11.52-5.12-25.92-9.28-47.68-9.28-52.48,0-86.72,32.64-86.72,86.72s32.96,87.04,83.2,87.04c18.24,0,30.72-2.56,37.12-5.76v-64.32h-43.84v-22.4h71.04v103.68Z" fill="#f93535" stroke-width="0"/><path d="m435.4,290.6c-12.48,4.48-37.12,11.84-66.24,11.84-32.64,0-59.52-8.32-80.64-28.48-18.56-17.92-30.08-46.72-30.08-80.32.32-64.32,44.48-111.36,116.8-111.36,24.96,0,44.48,5.44,53.76,9.92l-6.72,22.72c-11.52-5.12-25.92-9.28-47.68-9.28-52.48,0-86.72,32.64-86.72,86.72s32.96,87.04,83.2,87.04c18.24,0,30.72-2.56,37.12-5.76v-64.32h-43.84v-22.4h71.04v103.68Z" fill="#02303a" stroke-width="0"/><path d="m772.36,258.65c-11.7,4.2-34.8,11.1-62.1,11.1-30.6,0-55.8-7.8-75.6-26.7-17.4-16.8-28.2-43.8-28.2-75.3.3-60.3,41.7-104.4,109.5-104.4,23.4,0,41.7,5.1,50.4,9.3l-6.3,21.3c-10.8-4.8-24.3-8.7-44.7-8.7-49.2,0-81.3,30.6-81.3,81.3s30.9,81.6,78,81.6c17.1,0,28.8-2.4,34.8-5.4v-60.3h-41.1v-21h66.6v97.2Z" fill="#f93535" stroke-width="0"/><path d="m845.26,267.65l-51.3-202.2h27.6l24,102.3c6,25.2,11.4,50.4,15,69.9h.6c3.3-20.1,9.6-44.1,16.5-70.2l27-102h27.3l24.6,102.6c5.7,24,11.1,48,14.1,69.3h.6c4.2-22.2,9.9-44.7,16.2-69.9l26.7-102h26.7l-57.3,202.2h-27.3l-25.5-105.3c-6.3-25.8-10.5-45.6-13.2-66h-.6c-3.6,20.1-8.1,39.9-15.6,66l-28.8,105.3h-27.3Z" fill="#f93535" stroke-width="0"/><path d="m1114.36,87.65h-61.5v-22.2h149.7v22.2h-61.8v180h-26.4V87.65Z" fill="#f93535" stroke-width="0"/><path d="m1442.55,258.65c-11.7,4.2-34.8,11.1-62.1,11.1-30.6,0-55.8-7.8-75.6-26.7-17.4-16.8-28.2-43.8-28.2-75.3.3-60.3,41.7-104.4,109.5-104.4,23.4,0,41.7,5.1,50.4,9.3l-6.3,21.3c-10.8-4.8-24.3-8.7-44.7-8.7-49.2,0-81.3,30.6-81.3,81.3s30.9,81.6,78,81.6c17.1,0,28.8-2.4,34.8-5.4v-60.3h-41.1v-21h66.6v97.2Z" fill="#02303a" stroke-width="0"/><path d="m1481.55,167.75c0-17.1-.3-31.8-1.2-45.3h23.1l.9,28.5h1.2c6.6-19.5,22.5-31.8,40.2-31.8,3,0,5.1.3,7.5.9v24.9c-2.7-.6-5.4-.9-9-.9-18.6,0-31.8,14.1-35.4,33.9-.6,3.6-1.2,7.8-1.2,12.3v77.4h-26.1v-99.9Z" fill="#02303a" stroke-width="0"/><path d="m1658.55,267.65l-2.1-18.3h-.9c-8.1,11.4-23.7,21.6-44.4,21.6-29.4,0-44.4-20.7-44.4-41.7,0-35.1,31.2-54.3,87.3-54v-3c0-12-3.3-33.6-33-33.6-13.5,0-27.6,4.2-37.8,10.8l-6-17.4c12-7.8,29.4-12.9,47.7-12.9,44.4,0,55.2,30.3,55.2,59.4v54.3c0,12.6.6,24.9,2.4,34.8h-24Zm-3.9-74.1c-28.8-.6-61.5,4.5-61.5,32.7,0,17.1,11.4,25.2,24.9,25.2,18.9,0,30.9-12,35.1-24.3.9-2.7,1.5-5.7,1.5-8.4v-25.2Z" fill="#02303a" stroke-width="0"/><path d="m1848.15,54.65v175.5c0,12.9.3,27.6,1.2,37.5h-23.7l-1.2-25.2h-.6c-8.1,16.2-25.8,28.5-49.5,28.5-35.1,0-62.1-29.7-62.1-73.8-.3-48.3,29.7-78,65.1-78,22.2,0,37.2,10.5,43.8,22.2h.6V54.65h26.4Zm-26.4,126.9c0-3.3-.3-7.8-1.2-11.1-3.9-16.8-18.3-30.6-38.1-30.6-27.3,0-43.5,24-43.5,56.1,0,29.4,14.4,53.7,42.9,53.7,17.7,0,33.9-11.7,38.7-31.5.9-3.6,1.2-7.2,1.2-11.4v-25.2Z" fill="#02303a" stroke-width="0"/><path d="m1891.95,54.65h26.4v213h-26.4V54.65Z" fill="#02303a" stroke-width="0"/><path d="m1977.45,199.85c.6,35.7,23.4,50.4,49.8,50.4,18.9,0,30.3-3.3,40.2-7.5l4.5,18.9c-9.3,4.2-25.2,9-48.3,9-44.7,0-71.4-29.4-71.4-73.2s25.8-78.3,68.1-78.3c47.4,0,60,41.7,60,68.4,0,5.4-.6,9.6-.9,12.3h-102Zm77.4-18.9c.3-16.8-6.9-42.9-36.6-42.9-26.7,0-38.4,24.6-40.5,42.9h77.1Z" fill="#02303a" stroke-width="0"/><path d="m2177.54,67.85c12.6-2.1,29.1-3.9,50.1-3.9,25.8,0,44.7,6,56.7,16.8,11.1,9.6,17.7,24.3,17.7,42.3s-5.4,32.7-15.6,43.2c-13.8,14.7-36.3,22.2-61.8,22.2-7.8,0-15-.3-21-1.8v81h-26.1V67.85Zm26.1,97.5c5.7,1.5,12.9,2.1,21.6,2.1,31.5,0,50.7-15.3,50.7-43.2s-18.9-39.6-47.7-39.6c-11.4,0-20.1.9-24.6,2.1v78.6Z" fill="#5b5656" stroke-width="0"/><path d="m2334.74,54.65h26.4v213h-26.4V54.65Z" fill="#5b5656" stroke-width="0"/><path d="m2527.04,228.05c0,15,.3,28.2,1.2,39.6h-23.4l-1.5-23.7h-.6c-6.9,11.7-22.2,27-48,27-22.8,0-50.1-12.6-50.1-63.6v-84.9h26.4v80.4c0,27.6,8.4,46.2,32.4,46.2,17.7,0,30-12.3,34.8-24,1.5-3.9,2.4-8.7,2.4-13.5v-89.1h26.4v105.6Z" fill="#5b5656" stroke-width="0"/><path d="m2695.94,122.45c-.6,10.5-1.2,22.2-1.2,39.9v84.3c0,33.3-6.6,53.7-20.7,66.3-14.1,13.2-34.5,17.4-52.8,17.4s-36.6-4.2-48.3-12l6.6-20.1c9.6,6,24.6,11.4,42.6,11.4,27,0,46.8-14.1,46.8-50.7v-16.2h-.6c-8.1,13.5-23.7,24.3-46.2,24.3-36,0-61.8-30.6-61.8-70.8,0-49.2,32.1-77.1,65.4-77.1,25.2,0,39,13.2,45.3,25.2h.6l1.2-21.9h23.1Zm-27.3,57.3c0-4.5-.3-8.4-1.5-12-4.8-15.3-17.7-27.9-36.9-27.9-25.2,0-43.2,21.3-43.2,54.9,0,28.5,14.4,52.2,42.9,52.2,16.2,0,30.9-10.2,36.6-27,1.5-4.5,2.1-9.6,2.1-14.1v-26.1Z" fill="#5b5656" stroke-width="0"/><path d="m2766.14,81.65c.3,9-6.3,16.2-16.8,16.2-9.3,0-15.9-7.2-15.9-16.2s6.9-16.5,16.5-16.5,16.2,7.2,16.2,16.5Zm-29.4,186V122.45h26.4v145.2h-26.4Z" fill="#5b5656" stroke-width="0"/><path d="m2806.94,161.75c0-15-.3-27.3-1.2-39.3h23.4l1.5,24h.6c7.2-13.8,24-27.3,48-27.3,20.1,0,51.3,12,51.3,61.8v86.7h-26.4v-83.7c0-23.4-8.7-42.9-33.6-42.9-17.4,0-30.9,12.3-35.4,27-1.2,3.3-1.8,7.8-1.8,12.3v87.3h-26.4v-105.9Z" fill="#5b5656" stroke-width="0"/></svg>